<svg xmlns="http://www.w3.org/2000/svg" width="222" height="208" viewBox="0 0 222 208" version="1.1"><path d="M 93.278 21.719 C 92.295 24.281, 96.565 43.960, 100.849 56.607 C 108.623 79.560, 117.393 90.671, 134.182 98.840 L 144.500 103.860 138 103.956 C 133.933 104.016, 128.880 104.960, 124.500 106.477 C 117.547 108.886, 117.483 108.890, 115 106.970 C 113.625 105.907, 108.280 102.041, 103.122 98.380 C 90.521 89.436, 77.651 78.614, 71.191 71.531 C 58.907 58.062, 55.418 42.136, 60.614 23.250 C 61.109 21.450, 60.825 21, 59.196 21 C 55.677 21, 41.843 49.798, 38.058 65 C 33.983 81.373, 34.629 92.772, 40.230 103.279 C 47.943 117.751, 63.435 125.177, 88.915 126.617 L 100.702 127.283 98.851 133.231 C 92.675 153.076, 102.240 174.134, 121.533 183.162 C 141.967 192.724, 166.336 183.405, 176.289 162.223 C 179.042 156.365, 179.472 154.316, 179.636 146.295 C 179.769 139.750, 180.283 136.435, 181.412 134.822 C 185.513 128.967, 180.497 120, 173.121 120 C 171.514 120, 170.921 118.918, 169.971 114.250 C 165.604 92.815, 147.360 65.748, 120.724 41.188 C 109.990 31.291, 96.212 20, 94.869 20 C 94.356 20, 93.640 20.773, 93.278 21.719 M 97.361 27.332 C 97.712 28.339, 98 30.252, 98 31.582 C 98 34.628, 99.573 34.740, 100.355 31.750 C 100.758 30.211, 100.277 28.868, 98.833 27.500 C 96.910 25.678, 96.779 25.663, 97.361 27.332 M 102.612 36.345 C 100.869 40.909, 100.668 44.347, 101.960 47.500 C 102.854 49.682, 103.161 49.161, 106.602 39.624 C 108.371 34.720, 108.370 34.712, 106.112 33.302 C 104.430 32.251, 104.050 32.582, 102.612 36.345 M 50.055 43.260 C 45.347 53.449, 38.138 76.106, 40.273 74 C 40.552 73.725, 43.692 66.525, 47.252 58 C 52.989 44.259, 55.855 35, 54.373 35 C 54.097 35, 52.154 38.717, 50.055 43.260 M 107.964 47.101 C 104.947 55.466, 104.809 56.390, 106.018 60.054 C 106.734 62.224, 107.586 63.998, 107.910 63.995 C 108.449 63.990, 116.002 43.331, 116.001 41.865 C 116 41.516, 114.923 40.524, 113.606 39.661 L 111.212 38.093 107.964 47.101 M 115.147 56.562 C 112.866 62.971, 111.002 68.955, 111.005 69.858 C 111.008 70.761, 112.081 73.269, 113.389 75.431 L 115.769 79.361 118.435 70.431 C 119.902 65.519, 121.935 58.955, 122.954 55.844 L 124.805 50.188 122.050 47.548 L 119.295 44.908 115.147 56.562 M 46.946 68.750 C 41.442 81.870, 39.591 87.395, 39.849 89.930 C 40.732 98.614, 41.431 97.800, 49.753 78.394 C 57.645 59.991, 57.826 59.390, 56.721 55.250 C 56.097 52.913, 55.318 51, 54.989 51 C 54.660 51, 51.041 58.987, 46.946 68.750 M 123.061 68.526 L 118.676 83.053 121.531 86.033 C 123.102 87.672, 124.694 88.673, 125.070 88.257 C 125.446 87.840, 127.610 81.226, 129.879 73.557 L 134.004 59.613 131.315 56.807 C 129.836 55.263, 128.360 54, 128.035 54 C 127.711 54, 125.472 60.537, 123.061 68.526 M 59.075 66.250 C 58.594 67.487, 55.005 75.905, 51.100 84.956 C 47.195 94.007, 44 101.916, 44 102.532 C 44 103.148, 45.113 104.697, 46.474 105.976 L 48.949 108.301 52.046 101.400 C 53.750 97.605, 57.407 89.227, 60.174 82.783 L 65.204 71.066 63.020 67.533 C 61.819 65.590, 60.637 64, 60.394 64 C 60.150 64, 59.557 65.013, 59.075 66.250 M 136.482 65.250 C 135.154 68.900, 129 89.991, 129 90.893 C 129 91.928, 134.061 95, 135.767 95 C 136.244 95, 138.114 89.592, 139.923 82.983 L 143.211 70.966 140.555 67.483 C 137.639 63.660, 137.157 63.396, 136.482 65.250 M 60.105 92.686 C 52.441 110.279, 52.035 111.555, 53.711 112.808 C 58.577 116.449, 58.210 116.860, 66.333 98.691 C 70.560 89.236, 74.014 81.022, 74.009 80.437 C 74.004 79.852, 72.715 78.143, 71.144 76.638 L 68.288 73.902 60.105 92.686 M 144.646 80.250 C 143.824 83.138, 142.642 87.441, 142.020 89.813 C 141.398 92.184, 140.646 94.759, 140.349 95.533 C 140 96.442, 141.080 97.547, 143.392 98.650 C 145.362 99.590, 147.138 100.165, 147.337 99.929 C 147.536 99.693, 148.631 95.724, 149.770 91.109 L 151.842 82.718 149.288 78.859 C 147.883 76.737, 146.601 75, 146.438 75 C 146.275 75, 145.469 77.362, 144.646 80.250 M 69.652 100.750 L 62.058 117.500 64.779 118.705 C 69.960 120.999, 70.274 120.657, 77.285 105.110 C 80.978 96.921, 84 89.806, 84 89.298 C 84 88.463, 78.662 84, 77.663 84 C 77.433 84, 73.828 91.537, 69.652 100.750 M 152.638 95.285 C 151.005 102.091, 151.005 102.531, 152.649 103.732 C 155.583 105.878, 156.574 105.187, 157.881 100.086 C 158.958 95.884, 158.914 94.735, 157.577 92.150 C 156.718 90.487, 155.642 88.897, 155.188 88.616 C 154.733 88.335, 153.586 91.336, 152.638 95.285 M 81.185 105.750 C 77.744 113.313, 74.833 119.950, 74.715 120.500 C 74.597 121.050, 76.582 121.740, 79.127 122.032 L 83.754 122.565 89.843 110.340 L 95.933 98.115 92.072 95.057 C 89.949 93.376, 88.038 92, 87.826 92 C 87.614 92, 84.625 98.188, 81.185 105.750 M 94.887 108.626 C 92.633 113.507, 90.150 118.737, 89.369 120.250 L 87.949 123 93.251 123 L 98.554 123 102.828 114.384 C 105.178 109.645, 106.966 105.672, 106.800 105.555 C 106.635 105.439, 104.809 104.085, 102.743 102.547 L 98.986 99.752 94.887 108.626 M 160.550 104.656 C 159.996 106.865, 160.316 107.838, 162.065 109.254 C 164.918 111.564, 165.271 111.107, 163.868 106.912 C 162.242 102.050, 161.356 101.447, 160.550 104.656 M 126.799 109.528 C 124.214 110.355, 121.862 111.415, 121.573 111.882 C 120.453 113.694, 124.835 115.934, 131.516 116.962 C 146.815 119.318, 154.780 126.656, 153.608 137.314 C 152.894 143.809, 149.402 149.778, 144.165 153.456 C 140.332 156.147, 138.865 156.540, 131.510 156.849 C 121.606 157.264, 115.033 155.609, 106.750 150.614 C 100.488 146.837, 99.153 147.268, 104.134 151.459 C 110.838 157.101, 121.769 160.950, 139.938 164.068 C 150.930 165.954, 155 167.697, 155 170.520 C 155 172.772, 150.819 177.062, 145.647 180.118 L 140.500 183.159 144.500 182.519 C 146.700 182.167, 151.209 180.629, 154.520 179.100 L 160.540 176.320 160.163 171.584 C 159.657 165.223, 162.245 158.768, 166.808 155.007 C 168.814 153.353, 169.860 152, 169.132 152 C 166.251 152, 161.616 147.403, 159.219 142.168 C 157.080 137.494, 156.696 135.199, 156.698 127.078 C 156.700 121.810, 157.027 116.477, 157.425 115.227 C 158.062 113.228, 157.568 112.693, 153.325 110.794 C 147.081 107.999, 133.592 107.356, 126.799 109.528 M 106.913 115.250 L 103.797 121.500 108.869 116.567 C 112.766 112.776, 113.688 111.328, 112.848 110.317 C 110.990 108.078, 110.134 108.789, 106.913 115.250 M 112.683 118.048 C 110.107 120.315, 108 122.512, 108 122.930 C 108 123.707, 127.889 126.445, 128.571 125.762 C 128.778 125.555, 126.342 122.807, 123.157 119.655 L 117.366 113.925 112.683 118.048 M 160.487 122.275 C 158.846 137.604, 164.472 149, 173.681 149 C 176.257 149, 176.267 148.969, 175.784 142.250 C 175.469 137.864, 174.381 133.560, 172.678 129.963 C 170.068 124.450, 163.607 116, 162.002 116 C 161.538 116, 160.857 118.824, 160.487 122.275 M 134.451 126.599 C 139.762 133.119, 140.698 135.902, 138.975 140.059 C 136.261 146.613, 128.929 148.083, 123.923 143.077 C 120.658 139.812, 120.208 136.432, 122.458 132.080 L 123.917 129.260 114.708 128.231 C 104.267 127.063, 104.791 126.777, 102.357 134.967 L 100.732 140.434 105.377 144.639 C 114.395 152.804, 131.185 155.748, 140.726 150.838 C 146.360 147.939, 150 141.871, 150 135.378 C 150 132.007, 149.340 130.318, 146.970 127.619 C 143.939 124.166, 136.905 121, 132.267 121 C 130.025 121, 130.148 121.317, 134.451 126.599 M 176.198 128.250 C 178.185 132.023, 178.477 132.238, 178.798 130.168 C 178.998 128.885, 178.380 126.972, 177.425 125.918 C 174.464 122.645, 173.855 123.802, 176.198 128.250 M 126.655 132.829 C 123.358 136.472, 125.625 142, 130.416 142 C 135.225 142, 137.697 135.846, 134.171 132.655 C 131.772 130.484, 128.713 130.555, 126.655 132.829 M 103.168 159.053 C 103.754 160.732, 105.217 162.751, 106.420 163.539 C 109.915 165.829, 119.578 168.858, 128.888 170.581 C 138.127 172.292, 139.338 172.835, 138.159 174.743 C 137.323 176.095, 124.633 174.299, 115.408 171.522 C 112.760 170.725, 110.425 170.241, 110.220 170.447 C 109.422 171.245, 120.854 179.037, 124.937 180.478 C 130.973 182.607, 132.176 182.450, 139.775 178.538 C 147.471 174.575, 151.769 171.435, 150.809 170.476 C 150.446 170.113, 145.278 168.981, 139.324 167.961 C 126.495 165.763, 116.674 162.859, 108.647 158.893 C 105.428 157.302, 102.639 156, 102.449 156 C 102.259 156, 102.583 157.374, 103.168 159.053 M 169.881 157.503 C 168.441 158.286, 166.529 160.473, 165.631 162.364 C 163.876 166.064, 163.427 172, 164.903 172 C 165.918 172, 171.972 162.963, 173.778 158.750 C 175.154 155.540, 174.109 155.206, 169.881 157.503" stroke="none" fill="#111111" fill-rule="evenodd"/></svg>